<svg xmlns="http://www.w3.org/2000/svg" width="19.678" height="19.678" viewBox="0 0 19.678 19.678"><path d="M9.839,18.449A8.609,8.609,0,1,0,1.23,9.839,8.609,8.609,0,0,0,9.839,18.449Zm0,1.23A9.839,9.839,0,1,0,0,9.839,9.839,9.839,0,0,0,9.839,19.678Z" fill="#baeffc" fill-rule="evenodd"/><path d="M11.813,10.99h1.623a1.57,1.57,0,0,1,1.673-1.7,1.428,1.428,0,0,1,1.615,1.437c0,.781-.46,1.14-1.187,1.686A2.8,2.8,0,0,0,14.1,14.855l.009.57h1.608v-.437c0-.883.336-1.14,1.242-1.828a3,3,0,0,0,1.53-2.529c0-1.859-1.569-2.756-3.287-2.756-1.631,0-3.427.8-3.387,3.115Zm1.921,6.784a1.158,1.158,0,0,0,1.242,1.14,1.154,1.154,0,1,0,0-2.3A1.156,1.156,0,0,0,13.734,17.774Z" transform="translate(-5.356 -3.57)" fill="#baeffc"/></svg>