<svg xmlns="http://www.w3.org/2000/svg" width="19.635" height="19.635" viewBox="0 0 19.635 19.635"><g transform="translate(0 0)"><path d="M21.671,5.963V17.744H8.712l-.589.54-2.16,2.062V5.963H21.671M22.653,4H4.982A.982.982,0,0,0,4,4.982V22.653a.972.972,0,0,0,1.669.687L9.5,19.708H22.653a.982.982,0,0,0,.982-.982V4.982A.982.982,0,0,0,22.653,4Z" transform="translate(-4 -4)" fill="#baeffc"/><path d="M22.982,27.956a.982.982,0,0,1-.687-.295l-.147-.147c0-.049-.049-.1-.1-.147s0-.147-.049-.2v-.2a.982.982,0,0,1,.295-.687.933.933,0,0,1,1.374,0,.982.982,0,0,1,.295.687v.2c-.049.049-.049.1-.1.2s-.049.1-.049.147l-.147.147A.982.982,0,0,1,22.982,27.956Z" transform="translate(-13.164 -15.193)" fill="#baeffc"/><path d="M20.718,16.858a.982.982,0,0,1-.687-1.669,3.142,3.142,0,0,1,1.08-.589l.147-.1a1.276,1.276,0,0,0,.884-1.424A1.374,1.374,0,0,0,21.013,12a1.522,1.522,0,0,0-1.62.687.982.982,0,0,1-1.325.442,1.031,1.031,0,0,1-.393-1.374,3.534,3.534,0,0,1,3.731-1.718,3.485,3.485,0,0,1,2.7,2.651,3.338,3.338,0,0,1-2.013,3.632h-.2l-.491.245A1.178,1.178,0,0,1,20.718,16.858ZM21.455,16.563Z" transform="translate(-10.901 -7.041)" fill="#baeffc"/></g></svg>