<svg xmlns="http://www.w3.org/2000/svg" width="20.979" height="20.979" viewBox="0 0 20.979 20.979"><path d="M22.026,10.106a.954.954,0,0,0-.954.954v.477h-1A7.867,7.867,0,0,0,18.5,7.817l.715-.715.334.334a1.049,1.049,0,0,0,.715.286.954.954,0,0,0,.668-.286.906.906,0,0,0,0-1.335l-2.05-2.05a.906.906,0,0,0-1.335,0,1,1,0,0,0,0,1.383l.334.334-.715.715a7.867,7.867,0,0,0-3.719-1.573v-1h.477A.954.954,0,0,0,13.92,2H11.059a.954.954,0,1,0,0,1.907h.477v1A7.867,7.867,0,0,0,7.817,6.482L7.1,5.767l.334-.334a1,1,0,0,0,0-1.383.906.906,0,0,0-1.335,0L4.05,6.1a.906.906,0,0,0,0,1.335.954.954,0,0,0,.668.286,1.049,1.049,0,0,0,.715-.286L5.767,7.1l.715.715a7.867,7.867,0,0,0-1.573,3.719h-1v-.477a.954.954,0,1,0-1.907,0V13.92a.954.954,0,0,0,1.907,0v-.477h1a7.867,7.867,0,0,0,1.573,3.719l-.715.715-.334-.334a1,1,0,0,0-1.383,0,.906.906,0,0,0,0,1.335l2.05,2.05a.906.906,0,0,0,1.335,0,1,1,0,0,0,0-1.383L7.1,19.212l.715-.715a7.867,7.867,0,0,0,3.719,1.573v1h-.477a.954.954,0,1,0,0,1.907H13.92a.954.954,0,0,0,0-1.907h-.477v-1A7.867,7.867,0,0,0,17.162,18.5l.715.715-.334.334a1,1,0,0,0,0,1.383.906.906,0,0,0,1.335,0l2.05-2.05a.906.906,0,0,0,0-1.335,1,1,0,0,0-1.383,0l-.334.334-.715-.715a7.867,7.867,0,0,0,1.573-3.719h1v.477a.954.954,0,0,0,1.907,0V11.059A.954.954,0,0,0,22.026,10.106ZM12.49,18.211a5.722,5.722,0,1,1,5.722-5.722A5.722,5.722,0,0,1,12.49,18.211Z" transform="translate(-2 -2)" fill="#baeffc"/><circle cx="1.5" cy="1.5" r="1.5" transform="translate(9.046 5.046)" fill="#baeffc"/><circle cx="1.5" cy="1.5" r="1.5" transform="translate(9.046 9.046)" fill="#baeffc"/><ellipse cx="1.5" cy="2" rx="1.5" ry="2" transform="translate(9.046 12.046)" fill="#baeffc"/><ellipse cx="2" cy="1.5" rx="2" ry="1.5" transform="translate(12.046 9.046)" fill="#baeffc"/><circle cx="1.5" cy="1.5" r="1.5" transform="translate(5.046 9.046)" fill="#baeffc"/></svg>