<svg xmlns="http://www.w3.org/2000/svg" width="23.455" height="18.239" viewBox="0 0 23.455 18.239"><path d="M11.415,6.985,3.908,13.168v6.673a.651.651,0,0,0,.651.651l4.563-.012a.651.651,0,0,0,.648-.651v-3.9a.651.651,0,0,1,.651-.651h2.606a.651.651,0,0,1,.651.651v3.894a.651.651,0,0,0,.651.654l4.561.013a.651.651,0,0,0,.651-.651V13.164L12.038,6.985A.5.5,0,0,0,11.415,6.985Zm11.858,4.2-3.4-2.806V2.742a.489.489,0,0,0-.489-.489H17.1a.489.489,0,0,0-.489.489V5.7l-3.645-3a1.954,1.954,0,0,0-2.484,0L.176,11.188a.489.489,0,0,0-.065.688l1.038,1.262a.489.489,0,0,0,.689.066l9.577-7.889a.5.5,0,0,1,.623,0L21.616,13.2a.489.489,0,0,0,.688-.065l1.038-1.262a.489.489,0,0,0-.069-.689Z" transform="translate(0.001 -2.254)" fill="#baeffc"/></svg>