<svg xmlns="http://www.w3.org/2000/svg" width="242.698" height="151.666" viewBox="0 0 242.698 151.666"><g transform="translate(-92.651 -311.334)"><path d="M289.1,248.167h-2.422c-.026-.05-.026-.077-.026-3.492,0-3.11-1.911-5.2-4.69-5.2-2.957,0-4.843,2.116-4.843,5.583,0,4.41,4.181,5.148,7.29,5.25-.586,1.427-2.115,2.6-4.715,2.6-3.62,0-4.895-2.778-4.895-5.175,0-1.325.714-3.109,1.886-3.568v-.1l-.892-.078c-2.04,0-3.007,1.632-3.007,3.875,0,3.569,2.09,7.24,7.086,7.24a6.552,6.552,0,0,0,6.678-4.793h2.55v-2.141Zm-9.941-3.466c0-1.989,1.019-3.263,2.575-3.263,3.134,0,2.931,3.008,2.931,6.729-3.109,0-5.505-.305-5.505-3.466Zm4.536-6.959a1.224,1.224,0,1,0-1.274-1.224,1.24,1.24,0,0,0,1.274,1.224Zm-3.186,0a1.223,1.223,0,1,0,0-2.447,1.224,1.224,0,1,0,0,2.447Z" transform="translate(-98.046 85.926)" fill="#111" fill-rule="evenodd"/><rect width="3.314" height="2.141" transform="translate(190.804 334.093)" fill="#111"/><path d="M294.063,245.174v-2.065c0-1.224-.357-1.708-1.5-1.708h-.689v4.64c-.077,1.376-.739,1.911-1.938,1.911h-1.606v2.141H290.5c2.8-.178,3.568-2.5,3.568-4.92Zm.2-5.2a.514.514,0,0,0,.535-.484v-.408h-2.168a1.074,1.074,0,0,1-.305-.943c0-.867.434-.994.689-.994.152,0,.841.05,1.249,1.069a1.2,1.2,0,0,0,.255-.816,1.392,1.392,0,0,0-1.428-1.019,1.676,1.676,0,0,0-1.683,1.835,1.567,1.567,0,0,0,.1.714l.077.153h-.917v.408a.506.506,0,0,0,.509.484Z" transform="translate(-94.975 86.14)" fill="#111" fill-rule="evenodd"/><path d="M297.055,236.7c0-1.223-.357-1.707-1.5-1.707h-.687v11.317c0,2.37,1.249,3.951,3.569,4.053h.892v-2.141h-.332c-1.249,0-1.938-.586-1.938-2.013Z" transform="translate(-93.684 85.867)" fill="#111" fill-rule="evenodd"/><rect width="3.314" height="2.141" transform="translate(205.385 334.093)" fill="#111"/><rect width="3.314" height="2.141" transform="translate(208.316 334.093)" fill="#111"/><path d="M308.589,237.742a1.223,1.223,0,1,0,0-2.447,1.224,1.224,0,1,0,0,2.447Zm3.187,0a1.224,1.224,0,1,0-1.274-1.224,1.24,1.24,0,0,0,1.274,1.224Zm-8.718,12.566h14.454v-2.141h-2.7v-3.492c0-3.11-1.911-5.2-4.69-5.2-2.957,0-4.843,2.116-4.843,5.583a4.6,4.6,0,0,0,1.019,3.109h-3.237v2.141Zm9.763-2.141c-3.109,0-5.505-.305-5.505-3.466,0-1.989,1.019-3.263,2.574-3.263C313.025,241.437,312.82,244.446,312.82,248.167Z" transform="translate(-92.065 85.926)" fill="#111" fill-rule="evenodd"/><path d="M320.227,238.785c-3.085,0-4.206,1.453-4.206,2.907v.892s.942-1.606,3.746-1.606c3.39,0,4.487,4.231,4.614,6.5h-9.788v2.141h8.08a4.518,4.518,0,0,1,3.874,1.631,23.606,23.606,0,0,0,.128-2.447C326.677,244.393,325.4,238.785,320.227,238.785Z" transform="translate(-89.785 86.616)" fill="#111" fill-rule="evenodd"/><path d="M283.264,275.562c-1.547,0-2.75-.515-3.093-1.976-.473-3.566-2.107-8.251-5.029-10.013a8.2,8.2,0,0,0-4.3-1.461c-2.192,0-3.61.816-4.383,2.278l-.6,1.117a4.841,4.841,0,0,1,2.192-.43c4.9,0,8.208,4.684,8.6,10.485H263.968v1.72a1.883,1.883,0,0,0,1.763,1.891h8.293c2.794,0,4.426-.216,5.457-1.2a6.216,6.216,0,0,0,4.126,1.2h.646v-3.611Z" transform="translate(-99.789 91.225)" fill="#2f97b2" fill-rule="evenodd"/><path d="M288.139,267c0-2.063-.6-2.88-2.536-2.88h-1.159v7.822c-.129,2.321-1.247,3.223-3.267,3.223h-.988v3.611h1.934a6.232,6.232,0,0,0,4.169-1.634,6.14,6.14,0,0,0,4.168,1.634h1.934v-3.611H291.4c-1.977,0-3.181-.859-3.266-3.007V267Zm-4.856,18.522a2.063,2.063,0,0,0,0-4.126,2.063,2.063,0,1,0,0,4.126Zm4.941,0a2.065,2.065,0,1,0-2.148-2.063A2.092,2.092,0,0,0,288.224,285.523Z" transform="translate(-96.584 91.622)" fill="#2f97b2" fill-rule="evenodd"/><path d="M289.661,280.542H309.9v-9.5c0-5.242-3.223-8.766-7.908-8.766-4.986,0-8.165,3.568-8.165,9.412a7.756,7.756,0,0,0,1.719,5.242h-5.887v3.611Zm16.89-3.611c-5.243,0-9.283-.515-9.283-5.844,0-3.352,1.719-5.5,4.34-5.5,5.286,0,4.942,5.072,4.942,11.345Zm-4.513-17.576a2.085,2.085,0,1,0-2.062-2.063A2.036,2.036,0,0,0,302.038,259.355Z" transform="translate(-94.712 89.857)" fill="#2f97b2" fill-rule="evenodd"/><path d="M329.274,275.761h-4.083c-.043-.085-.043-.128-.043-5.887,0-5.242-3.224-8.766-7.908-8.766-4.986,0-8.165,3.568-8.165,9.412,0,7.434,7.048,8.68,12.291,8.853-.559,2.665-4.383,4-8.079,4a11.853,11.853,0,0,1-2.15-.171v1.719c0,1.5,1.59,1.977,3.568,1.977,5.5,0,9.5-3.4,10.271-7.521h4.3v-3.611Zm-16.76-5.844c0-3.352,1.719-5.5,4.34-5.5,5.286,0,4.943,5.072,4.943,11.345C316.553,275.761,312.513,275.246,312.513,269.917Z" transform="translate(-90.876 91.027)" fill="#2f97b2" fill-rule="evenodd"/><path d="M328.532,267.9a7.577,7.577,0,0,1,2.321-.344c7,0,7.993,6.274,8.208,10.1H325.223v3.611h17.705l.043-3.611c.043-5.328-1.719-12.162-9.2-13.58l11.517-8.6a1.748,1.748,0,0,0,.644-1.375,2.006,2.006,0,0,0-.387-1.2l-1.031-1.375-16.073,11.947a2.466,2.466,0,0,0-1.2,1.976,2.314,2.314,0,0,0,.559,1.461l.687.9Z" transform="translate(-87.685 89.133)" fill="#2f97b2" fill-rule="evenodd"/><g transform="translate(265.83 311.334)"><path d="M360.638,281.032l-1.188-1.227,18.918-23.447,24.018-18.194,1.188,1.227-18.918,23.451Z" transform="translate(-346.752 -224.84)" fill="#2f97b2" fill-rule="evenodd"/><path d="M398.426,241.372a3.052,3.052,0,1,1,.067-4.314A3.051,3.051,0,0,1,398.426,241.372Z" transform="translate(-340.073 -225.242)" fill="#2f97b2" fill-rule="evenodd"/><path d="M362.572,276.143a3.051,3.051,0,1,1,.067-4.319A3.051,3.051,0,0,1,362.572,276.143Z" transform="translate(-347.158 -218.372)" fill="#2f97b2" fill-rule="evenodd"/><path d="M352.892,257.2l.025-1.708,29.96-3.2,29.847,4.119-.025,1.71-29.959,3.2Z" transform="translate(-348.048 -222.049)" fill="#2f97b2" fill-rule="evenodd"/><path d="M403.3,260a3.051,3.051,0,1,1,3.1-3A3.052,3.052,0,0,1,403.3,260Z" transform="translate(-338.682 -221.732)" fill="#2f97b2" fill-rule="evenodd"/><path d="M353.361,259.234a3.051,3.051,0,1,1,3.1-3A3.05,3.05,0,0,1,353.361,259.234Z" transform="translate(-348.549 -221.883)" fill="#2f97b2" fill-rule="evenodd"/><path d="M359.974,238.828l1.227-1.188,23.451,18.918,18.191,24.017-1.227,1.192-23.45-18.922Z" transform="translate(-346.648 -224.944)" fill="#2f97b2" fill-rule="evenodd"/><path d="M393.568,276.616a3.051,3.051,0,1,1,4.317.068A3.05,3.05,0,0,1,393.568,276.616Z" transform="translate(-340.18 -218.265)" fill="#2f97b2" fill-rule="evenodd"/><path d="M358.8,240.765a3.053,3.053,0,1,1,4.315.063A3.052,3.052,0,0,1,358.8,240.765Z" transform="translate(-347.051 -225.35)" fill="#2f97b2" fill-rule="evenodd"/><path d="M378.221,231.082l1.708.029,3.2,29.956-4.119,29.847-1.708-.026-3.2-29.959Z" transform="translate(-343.857 -226.24)" fill="#2f97b2" fill-rule="evenodd"/><path d="M374.942,281.487a3.051,3.051,0,1,1,3,3.1A3.051,3.051,0,0,1,374.942,281.487Z" transform="translate(-343.691 -216.874)" fill="#2f97b2" fill-rule="evenodd"/><path d="M375.707,231.551a3.051,3.051,0,1,1,3,3.1A3.051,3.051,0,0,1,375.707,231.551Z" transform="translate(-343.54 -226.741)" fill="#2f97b2" fill-rule="evenodd"/><path d="M416,271.876a3.44,3.44,0,0,0-3.735.679l-5.511-3.194a24.251,24.251,0,0,0,.157-14.635l5.576-3.079a3.446,3.446,0,1,0-1.006-2.508l-6.157,1.641a24.234,24.234,0,0,0-10.241-10.459l1.769-6.122a3.444,3.444,0,1,0-2.485-1.06l-3.194,5.513a24.226,24.226,0,0,0-14.636-.153l-3.078-5.58a3.443,3.443,0,1,0-2.508,1.008l1.639,6.157a24.217,24.217,0,0,0-10.457,10.237l-6.122-1.769a3.444,3.444,0,1,0-1.06,2.486l5.513,3.194a24.241,24.241,0,0,0-.157,14.635l-5.577,3.079a3.446,3.446,0,1,0,1.006,2.508l6.157-1.64a24.265,24.265,0,0,0,10.241,10.461l-1.769,6.117a3.447,3.447,0,1,0,2.486,1.065l3.194-5.514a24.268,24.268,0,0,0,14.635.155l3.078,5.58a3.443,3.443,0,1,0,2.509-1.01l-1.641-6.156a24.228,24.228,0,0,0,10.459-10.241l6.121,1.771a3.444,3.444,0,1,0,4.8-3.168Z" transform="translate(-348.847 -227.039)" fill="#6aced7" fill-rule="evenodd"/><path d="M392.739,263.7a13.705,13.705,0,1,0-17.986,7.226A13.7,13.7,0,0,0,392.739,263.7Z" transform="translate(-345.374 -223.566)" fill="#2f97b2" fill-rule="evenodd"/><path d="M375.863,271.723a2.678,2.678,0,1,0-3.235.914A2.4,2.4,0,0,0,375.863,271.723Z" transform="translate(-344.488 -218.846)" fill="#2f97b2" fill-rule="evenodd"/><path d="M366.416,251.359a2.678,2.678,0,1,0-3.235.913A2.4,2.4,0,0,0,366.416,251.359Z" transform="translate(-346.354 -222.87)" fill="#2f97b2" fill-rule="evenodd"/><path d="M395.431,251.166a2.679,2.679,0,1,0-3.236.913A2.4,2.4,0,0,0,395.431,251.166Z" transform="translate(-340.621 -222.908)" fill="#2f97b2" fill-rule="evenodd"/><path d="M385.537,259.829c1.237-2.905-.678-6.507-4.281-8.043s-7.532-.43-8.771,2.475.679,6.5,4.283,8.039S384.3,262.731,385.537,259.829Z" transform="translate(-344.251 -222.286)" fill="#6aced7" fill-rule="evenodd"/></g><path d="M234.839,282.572V251.955l-7.127,4.937-2.017-4.816,8.5-7.1h7.644v37.592Z" transform="translate(-107.352 87.84)" fill="#c7383e" fill-rule="evenodd"/><path d="M266.643,258.21a22.824,22.824,0,0,1-1.105,6.9,30.082,30.082,0,0,1-3.133,6.823,35.271,35.271,0,0,1-4.886,6.244,34.792,34.792,0,0,1-6.387,5.131c-.263-.314-.446-.558-.558-.71s-.284-.384-.516-.689v.03q-.564-.684-1.065-1.338c-.325-.436-.69-.883-1.085-1.339a30.22,30.22,0,0,0,6.053-5.048,20.926,20.926,0,0,0,3.74-5.759,10.764,10.764,0,0,1-4.135.8,12.157,12.157,0,0,1-4.289-.79,11.574,11.574,0,0,1-3.8-2.322,11.407,11.407,0,0,1-2.727-3.792,12.249,12.249,0,0,1-1.044-5.2,13.325,13.325,0,0,1,.923-5.059,12,12,0,0,1,2.564-3.964,11.574,11.574,0,0,1,3.914-2.584,13.2,13.2,0,0,1,5.029-.923,13.646,13.646,0,0,1,5.363.994,10.965,10.965,0,0,1,3.912,2.808,12.219,12.219,0,0,1,2.413,4.319,17.4,17.4,0,0,1,.822,5.465Zm-13.271-7.563a5.245,5.245,0,0,0-2.454.568,6.114,6.114,0,0,0-1.8,1.41,6.214,6.214,0,0,0-1.125,1.855,5.456,5.456,0,0,0-.386,1.926,5.562,5.562,0,0,0,.7,2.768,7.271,7.271,0,0,0,1.835,2.129,8.722,8.722,0,0,0,2.515,1.389,8.494,8.494,0,0,0,2.8.486,8.094,8.094,0,0,0,2.25-.325,7,7,0,0,0,2.068-1.014,12.41,12.41,0,0,0,.365-3.031,10.755,10.755,0,0,0-.445-3.081,8.325,8.325,0,0,0-1.308-2.616,6.263,6.263,0,0,0-2.12-1.794A6.092,6.092,0,0,0,253.372,250.647Z" transform="translate(-104.189 87.77)" fill="#c7383e" fill-rule="evenodd"/><path d="M212.465,261.357h-1.32c-.044-.171-.084-.319-.121-.436a1.5,1.5,0,0,0-.125-.315,1.472,1.472,0,0,0-.169-.255,2.983,2.983,0,0,0-.24-.262,2.658,2.658,0,0,0-1.895-.648,3.1,3.1,0,0,0-1.262.248,2.571,2.571,0,0,0-.943.721,3.325,3.325,0,0,0-.593,1.164,5.535,5.535,0,0,0-.2,1.565,5.4,5.4,0,0,0,.193,1.5,3.251,3.251,0,0,0,.569,1.141,2.5,2.5,0,0,0,.911.726,2.829,2.829,0,0,0,1.22.255,2.532,2.532,0,0,0,1.783-.635,3,3,0,0,0,.873-1.82h1.32a4.7,4.7,0,0,1-.8,2.09,3.683,3.683,0,0,1-3.143,1.541,4.624,4.624,0,0,1-1.792-.331,3.727,3.727,0,0,1-1.347-.944,4.16,4.16,0,0,1-.848-1.49,6.173,6.173,0,0,1-.295-1.97,4.932,4.932,0,0,1,1.468-3.905,4.736,4.736,0,0,1,.649-.478,4.081,4.081,0,0,1,.656-.326,4.351,4.351,0,0,1,1.544-.245,5.1,5.1,0,0,1,1.52.216,3.668,3.668,0,0,1,1.2.623,3.128,3.128,0,0,1,.814.977A3.347,3.347,0,0,1,212.465,261.357Z" transform="translate(-111.591 90.462)" fill="#c7383e" fill-rule="evenodd"/><path d="M211.952,263.926a4.992,4.992,0,0,1,.211-1.511,3.138,3.138,0,0,1,.612-1.125,2.587,2.587,0,0,1,.972-.7,3.6,3.6,0,0,1,2.59,0,2.623,2.623,0,0,1,.977.7,3.162,3.162,0,0,1,.616,1.125,5.533,5.533,0,0,1,0,3.017,3.2,3.2,0,0,1-.608,1.129,2.623,2.623,0,0,1-.972.715,3.283,3.283,0,0,1-1.305.248,3.246,3.246,0,0,1-1.3-.248,2.7,2.7,0,0,1-.972-.71,3.176,3.176,0,0,1-.614-1.132,5.023,5.023,0,0,1-.211-1.508Zm1.249,0a4.293,4.293,0,0,0,.122,1.061,2.37,2.37,0,0,0,.361.8,1.632,1.632,0,0,0,.578.505,1.7,1.7,0,0,0,.789.176,1.571,1.571,0,0,0,1.364-.668,3.269,3.269,0,0,0,.475-1.911,4.152,4.152,0,0,0-.122-1.044,2.225,2.225,0,0,0-.36-.78,1.611,1.611,0,0,0-.578-.485,1.735,1.735,0,0,0-.778-.169,1.6,1.6,0,0,0-1.372.654A3.116,3.116,0,0,0,213.2,263.921Z" transform="translate(-110.067 90.877)" fill="#c7383e" fill-rule="evenodd"/><path d="M220.038,267.338l-2.534-6.866h1.235l1.916,5.5,1.875-5.5h1.235l-2.506,6.866Z" transform="translate(-108.97 90.901)" fill="#c7383e" fill-rule="evenodd"/><path d="M223.329,260.909h1.176v6.819h-1.176v-6.819Zm0-2.487h1.176v1.323h-1.176Z" transform="translate(-107.819 90.496)" fill="#c7383e" fill-rule="evenodd"/><path d="M230.034,261.6v-3.2h1.177v9.324h-1.117v-.869a6.023,6.023,0,0,1-.48.515,2.341,2.341,0,0,1-.454.323,1.849,1.849,0,0,1-.485.166,2.862,2.862,0,0,1-.571.051,2.42,2.42,0,0,1-1.98-.951,3.287,3.287,0,0,1-.544-1.1,5.016,5.016,0,0,1-.192-1.44,5.272,5.272,0,0,1,.2-1.5,3.677,3.677,0,0,1,.569-1.166,2.644,2.644,0,0,1,.879-.762,2.394,2.394,0,0,1,1.138-.272,2.77,2.77,0,0,1,.516.044,1.7,1.7,0,0,1,.454.145,2.625,2.625,0,0,1,.429.272,4.5,4.5,0,0,1,.46.419Zm-1.65,5.25a1.456,1.456,0,0,0,1.284-.649,3.383,3.383,0,0,0,.441-1.895,3.319,3.319,0,0,0-.441-1.865,1.456,1.456,0,0,0-1.284-.649,1.485,1.485,0,0,0-1.3.642,3.271,3.271,0,0,0-.448,1.872,3.339,3.339,0,0,0,.448,1.895A1.48,1.48,0,0,0,228.384,266.851Z" transform="translate(-107.412 90.491)" fill="#c7383e" fill-rule="evenodd"/><path d="M204.795,268.472h6.714v1.161h-5.42v2.734H211.1v1.176h-5.011v4.234h-1.293Z" transform="translate(-111.482 92.482)" fill="#c7383e" fill-rule="evenodd"/><path d="M211.6,272.692a2.447,2.447,0,0,1,.19-1,1.92,1.92,0,0,1,.544-.72,2.377,2.377,0,0,1,.86-.435,4.189,4.189,0,0,1,1.135-.141,5.143,5.143,0,0,1,1.134.11,2.031,2.031,0,0,1,.816.368,1.563,1.563,0,0,1,.493.663,2.691,2.691,0,0,1,.164,1V275.8q0,.7.417.7l.338-.029v.907c-.089.029-.164.052-.231.068s-.127.032-.183.044a.9.9,0,0,1-.155.019c-.047,0-.1,0-.157,0a1.022,1.022,0,0,1-1.087-1.034,3.07,3.07,0,0,1-2.342,1.092,2.785,2.785,0,0,1-.907-.139,1.968,1.968,0,0,1-.7-.407,1.789,1.789,0,0,1-.449-.639,2.162,2.162,0,0,1-.159-.848,1.853,1.853,0,0,1,1.135-1.818,9.634,9.634,0,0,1,2.666-.576l.683-.093v-.331a1.653,1.653,0,0,0-.1-.617.916.916,0,0,0-.285-.393,1.126,1.126,0,0,0-.457-.207,2.882,2.882,0,0,0-.635-.062,1.772,1.772,0,0,0-1.117.309,1.123,1.123,0,0,0-.393.941Zm4.189,1.281-.436.063c-.133.019-.265.04-.4.061s-.278.047-.429.076-.327.065-.522.109a5.472,5.472,0,0,0-.662.2,1.651,1.651,0,0,0-.448.243.777.777,0,0,0-.248.319,1.114,1.114,0,0,0-.075.434.958.958,0,0,0,.321.769,1.35,1.35,0,0,0,.9.272,2.3,2.3,0,0,0,.774-.129,2.187,2.187,0,0,0,.632-.343,1.658,1.658,0,0,0,.429-.5,1.259,1.259,0,0,0,.159-.61Z" transform="translate(-110.192 92.863)" fill="#c7383e" fill-rule="evenodd"/><path d="M222.039,274.971h1.2a3.754,3.754,0,0,1-.331,1.176,2.58,2.58,0,0,1-.613.813,2.442,2.442,0,0,1-.846.473,3.238,3.238,0,0,1-1.012.153,3.555,3.555,0,0,1-1.343-.237,2.653,2.653,0,0,1-.993-.681,2.9,2.9,0,0,1-.614-1.095,4.8,4.8,0,0,1-.208-1.478,5.368,5.368,0,0,1,.211-1.57,3.227,3.227,0,0,1,.614-1.162,2.632,2.632,0,0,1,.986-.719,3.367,3.367,0,0,1,1.328-.247,3.235,3.235,0,0,1,1.083.171,2.452,2.452,0,0,1,1.438,1.3,3.429,3.429,0,0,1,.3,1.072h-1.2q-.323-1.486-1.622-1.485a1.649,1.649,0,0,0-1.4.644,2.923,2.923,0,0,0-.493,1.816,3.28,3.28,0,0,0,.485,1.938,1.639,1.639,0,0,0,1.417.674Q221.642,276.529,222.039,274.971Z" transform="translate(-109.015 92.863)" fill="#c7383e" fill-rule="evenodd"/><path d="M222.494,270.823h.9v-1.677h1.176v1.677H225.7v.986h-1.134v4.143a2.13,2.13,0,0,0,.031.4.536.536,0,0,0,.121.26.443.443,0,0,0,.228.137,1.368,1.368,0,0,0,.368.039l.387-.014v1l-.877.048c-.711,0-1.15-.258-1.319-.769a3.924,3.924,0,0,1-.115-1.19v-4.053h-.9Z" transform="translate(-107.984 92.615)" fill="#c7383e" fill-rule="evenodd"/><path d="M225.98,275.162h1.242c0,.133,0,.248.013.34a1.542,1.542,0,0,0,.034.243.671.671,0,0,0,.079.187,1.126,1.126,0,0,0,.141.169,1.672,1.672,0,0,0,1.241.413,1.893,1.893,0,0,0,1.071-.269.826.826,0,0,0,.4-.72.611.611,0,0,0-.139-.39,1.486,1.486,0,0,0-.529-.342l-2.146-.668a1.807,1.807,0,0,1-1.184-1.743,1.732,1.732,0,0,1,.187-.806,1.872,1.872,0,0,1,.521-.628,2.47,2.47,0,0,1,.8-.4,3.5,3.5,0,0,1,1.035-.145,3.617,3.617,0,0,1,1.019.137,2.3,2.3,0,0,1,.794.4,1.808,1.808,0,0,1,.517.677,2.263,2.263,0,0,1,.183.943h-1.2a1.135,1.135,0,0,0-.111-.529.915.915,0,0,0-.3-.343,1.257,1.257,0,0,0-.436-.187,2.261,2.261,0,0,0-.513-.059,1.875,1.875,0,0,0-.495.062,1.432,1.432,0,0,0-.41.171.993.993,0,0,0-.279.267.59.59,0,0,0-.1.333.8.8,0,0,0,.588.784l1.992.617a5.661,5.661,0,0,1,.639.321,2.039,2.039,0,0,1,.454.358,1.333,1.333,0,0,1,.277.443,1.613,1.613,0,0,1,.093.569,2.025,2.025,0,0,1-.733,1.574,2.62,2.62,0,0,1-.862.462,3.6,3.6,0,0,1-1.14.169,3.007,3.007,0,0,1-2.036-.61A2.264,2.264,0,0,1,225.98,275.162Z" transform="translate(-107.295 92.863)" fill="#c7383e" fill-rule="evenodd"/><path d="M71.5,72a71.815,71.815,0,0,1-14.41-1.458,70.961,70.961,0,0,1-13.421-4.181,71.443,71.443,0,0,1-12.145-6.615,72.078,72.078,0,0,1-10.582-8.76,72.193,72.193,0,0,1-8.731-10.617A71.863,71.863,0,0,1,5.619,28.183,71.58,71.58,0,0,1,1.453,14.716,72.532,72.532,0,0,1,0,.257C0,.171,0,.086,0,0H24.632c0,.135,0,.279,0,.442a47.054,47.054,0,1,0,94.108,0c0-.145,0-.293,0-.442H143c0,.059,0,.118,0,.177v.08a72.5,72.5,0,0,1-1.453,14.459,71.544,71.544,0,0,1-4.166,13.467,71.826,71.826,0,0,1-6.592,12.187,72.217,72.217,0,0,1-8.731,10.617,72.056,72.056,0,0,1-10.582,8.76,71.44,71.44,0,0,1-12.145,6.615A70.96,70.96,0,0,1,85.91,70.542,71.808,71.808,0,0,1,71.5,72Z" transform="translate(130.349 391)" fill="#6aced7"/></g></svg>