<svg xmlns="http://www.w3.org/2000/svg" width="263.291" height="75.416" viewBox="0 0 263.291 75.416"><g transform="translate(-107 -106.535)"><path d="M290.489,249.259h-2.627c-.029-.054-.029-.083-.029-3.788,0-3.374-2.073-5.641-5.088-5.641-3.208,0-5.254,2.3-5.254,6.057,0,4.784,4.536,5.585,7.908,5.7-.635,1.549-2.294,2.821-5.115,2.821-3.928,0-5.31-3.014-5.31-5.614,0-1.437.774-3.373,2.046-3.87v-.11l-.968-.084c-2.213,0-3.262,1.771-3.262,4.2,0,3.872,2.267,7.854,7.688,7.854,4.037,0,6.664-2.572,7.244-5.2h2.766v-2.323ZM279.7,245.5c0-2.158,1.106-3.54,2.793-3.54,3.4,0,3.179,3.264,3.179,7.3-3.373,0-5.973-.331-5.973-3.76Zm4.921-7.55a1.328,1.328,0,1,0-1.382-1.328,1.345,1.345,0,0,0,1.382,1.328Zm-3.456,0a1.327,1.327,0,1,0,0-2.654,1.327,1.327,0,1,0,0,2.654Z" transform="translate(-76.731 -118.033)" fill="#111" fill-rule="evenodd"/><rect width="3.595" height="2.323" transform="translate(213.481 131.226)" fill="#111"/><path d="M294.55,245.92v-2.24c0-1.328-.387-1.853-1.631-1.853h-.747v5.033c-.083,1.493-.8,2.074-2.1,2.074h-1.742v2.323h2.352c3.041-.194,3.87-2.71,3.87-5.337Zm.222-5.641a.558.558,0,0,0,.581-.525v-.443H293a1.165,1.165,0,0,1-.331-1.022c0-.941.47-1.078.747-1.078.165,0,.912.055,1.355,1.16a1.3,1.3,0,0,0,.277-.885,1.51,1.51,0,0,0-1.549-1.106,1.819,1.819,0,0,0-1.825,1.99,1.7,1.7,0,0,0,.11.774l.083.166h-1v.443a.549.549,0,0,0,.552.525Z" transform="translate(-72.082 -117.709)" fill="#111" fill-rule="evenodd"/><path d="M297.241,236.848c0-1.327-.387-1.851-1.632-1.851h-.746v12.278c0,2.571,1.355,4.286,3.872,4.4h.968v-2.323h-.36c-1.355,0-2.1-.635-2.1-2.184Z" transform="translate(-70.127 -118.122)" fill="#111" fill-rule="evenodd"/><rect width="3.595" height="2.323" transform="translate(229.299 131.226)" fill="#111"/><rect width="3.595" height="2.323" transform="translate(232.479 131.226)" fill="#111"/><path d="M309.058,237.949a1.327,1.327,0,1,0,0-2.654,1.327,1.327,0,1,0,0,2.654Zm3.457,0a1.328,1.328,0,1,0-1.382-1.328,1.345,1.345,0,0,0,1.382,1.328Zm-9.458,13.633h15.68v-2.323H315.8V245.47c0-3.374-2.074-5.641-5.088-5.641-3.208,0-5.254,2.3-5.254,6.057a4.989,4.989,0,0,0,1.106,3.373h-3.512v2.323Zm10.591-2.323c-3.373,0-5.973-.331-5.973-3.76,0-2.158,1.106-3.54,2.792-3.54C313.87,241.959,313.648,245.222,313.648,249.259Z" transform="translate(-67.675 -118.033)" fill="#111" fill-rule="evenodd"/><path d="M320.706,238.785c-3.347,0-4.563,1.576-4.563,3.153v.968s1.022-1.742,4.064-1.742c3.678,0,4.868,4.59,5.006,7.051H314.594v2.323h8.766c3.069,0,4.2,1.77,4.2,1.77a25.612,25.612,0,0,0,.139-2.654C327.7,244.869,326.318,238.785,320.706,238.785Z" transform="translate(-64.223 -116.989)" fill="#111" fill-rule="evenodd"/><path d="M284.9,276.7c-1.679,0-2.983-.559-3.356-2.144-.513-3.869-2.285-8.952-5.455-10.863a8.9,8.9,0,0,0-4.662-1.585c-2.378,0-3.916.885-4.755,2.471l-.654,1.212a5.252,5.252,0,0,1,2.378-.466c5.315,0,8.9,5.081,9.324,11.375H263.968v1.866a2.043,2.043,0,0,0,1.912,2.051h9c3.031,0,4.8-.234,5.921-1.306a6.743,6.743,0,0,0,4.476,1.306h.7V276.7Z" transform="translate(-79.371 -110.009)" fill="#2f97b2" fill-rule="evenodd"/><path d="M288.813,267.246c0-2.239-.653-3.125-2.752-3.125H284.8v8.485c-.14,2.518-1.352,3.5-3.544,3.5h-1.072v3.917h2.1a6.76,6.76,0,0,0,4.523-1.772,6.661,6.661,0,0,0,4.521,1.772h2.1V276.1h-1.072c-2.145,0-3.451-.932-3.543-3.262v-5.594Zm-5.268,20.094a2.238,2.238,0,0,0,0-4.476,2.238,2.238,0,1,0,0,4.476Zm5.361,0a2.24,2.24,0,1,0-2.331-2.238A2.269,2.269,0,0,0,288.906,287.339Z" transform="translate(-74.518 -109.408)" fill="#2f97b2" fill-rule="evenodd"/><path d="M289.661,282.693H311.62v-10.3c0-5.687-3.5-9.51-8.579-9.51-5.409,0-8.858,3.87-8.858,10.211a8.414,8.414,0,0,0,1.864,5.687h-6.387v3.917Zm18.323-3.917c-5.688,0-10.07-.559-10.07-6.34,0-3.636,1.864-5.967,4.708-5.967,5.735,0,5.362,5.5,5.362,12.308Zm-4.9-19.067a2.261,2.261,0,1,0-2.237-2.239A2.209,2.209,0,0,0,303.088,259.709Z" transform="translate(-71.683 -112.081)" fill="#2f97b2" fill-rule="evenodd"/><path d="M330.988,277h-4.429c-.047-.092-.047-.139-.047-6.387,0-5.687-3.5-9.51-8.579-9.51-5.409,0-8.858,3.87-8.858,10.211,0,8.064,7.646,9.417,13.334,9.6-.607,2.891-4.755,4.335-8.764,4.335a12.86,12.86,0,0,1-2.332-.186v1.864c0,1.632,1.725,2.145,3.87,2.145,5.967,0,10.3-3.683,11.142-8.159h4.663V277Zm-18.183-6.34c0-3.637,1.864-5.967,4.708-5.967,5.735,0,5.362,5.5,5.362,12.307C317.187,277,312.805,276.446,312.805,270.664Z" transform="translate(-65.874 -110.31)" fill="#2f97b2" fill-rule="evenodd"/><path d="M328.813,269.289a8.219,8.219,0,0,1,2.518-.373c7.6,0,8.671,6.807,8.9,10.955H325.223v3.917h19.208l.047-3.917c.047-5.78-1.864-13.194-9.977-14.732L347,255.815a1.9,1.9,0,0,0,.7-1.492,2.176,2.176,0,0,0-.42-1.306l-1.119-1.491-17.437,12.961a2.675,2.675,0,0,0-1.306,2.144,2.51,2.51,0,0,0,.607,1.585l.746.98Z" transform="translate(-61.043 -113.177)" fill="#2f97b2" fill-rule="evenodd"/><g transform="translate(294.873 106.535)"><path d="M360.739,284.67l-1.289-1.331L379.973,257.9l26.056-19.738,1.289,1.331-20.523,25.441Z" transform="translate(-345.675 -223.71)" fill="#2f97b2" fill-rule="evenodd"/><path d="M398.865,241.817a3.311,3.311,0,1,1,.073-4.68A3.31,3.31,0,0,1,398.865,241.817Z" transform="translate(-335.561 -224.319)" fill="#2f97b2" fill-rule="evenodd"/><path d="M363.011,276.588a3.31,3.31,0,1,1,.073-4.685A3.31,3.31,0,0,1,363.011,276.588Z" transform="translate(-346.289 -213.915)" fill="#2f97b2" fill-rule="evenodd"/><path d="M352.892,257.62l.027-1.853,32.5-3.475,32.379,4.469-.028,1.855-32.5,3.475Z" transform="translate(-347.637 -219.483)" fill="#2f97b2" fill-rule="evenodd"/><path d="M403.552,260.517a3.31,3.31,0,1,1,3.36-3.26A3.311,3.311,0,0,1,403.552,260.517Z" transform="translate(-333.454 -219.003)" fill="#2f97b2" fill-rule="evenodd"/><path d="M353.616,259.752a3.31,3.31,0,1,1,3.36-3.26A3.308,3.308,0,0,1,353.616,259.752Z" transform="translate(-348.396 -219.231)" fill="#2f97b2" fill-rule="evenodd"/><path d="M359.974,238.929l1.331-1.289,25.441,20.524,19.734,26.055-1.331,1.293-25.44-20.527Z" transform="translate(-345.518 -223.867)" fill="#2f97b2" fill-rule="evenodd"/><path d="M393.641,277.055a3.31,3.31,0,1,1,4.684.074A3.309,3.309,0,0,1,393.641,277.055Z" transform="translate(-335.723 -213.753)" fill="#2f97b2" fill-rule="evenodd"/><path d="M358.873,241.2a3.312,3.312,0,1,1,4.681.069A3.311,3.311,0,0,1,358.873,241.2Z" transform="translate(-346.127 -224.481)" fill="#2f97b2" fill-rule="evenodd"/><path d="M378.571,231.082l1.852.031,3.475,32.5-4.469,32.38-1.852-.028-3.475-32.5Z" transform="translate(-341.29 -225.829)" fill="#2f97b2" fill-rule="evenodd"/><path d="M374.942,281.742a3.31,3.31,0,1,1,3.26,3.365A3.31,3.31,0,0,1,374.942,281.742Z" transform="translate(-341.039 -211.646)" fill="#2f97b2" fill-rule="evenodd"/><path d="M375.707,231.806a3.31,3.31,0,1,1,3.258,3.36A3.31,3.31,0,0,1,375.707,231.806Z" transform="translate(-340.81 -226.588)" fill="#2f97b2" fill-rule="evenodd"/><path d="M421.7,275.68a3.732,3.732,0,0,0-4.052.737l-5.979-3.465a26.308,26.308,0,0,0,.17-15.876l6.049-3.34a3.738,3.738,0,1,0-1.091-2.721l-6.679,1.78A26.291,26.291,0,0,0,399,241.449l1.919-6.642a3.736,3.736,0,1,0-2.7-1.15l-3.465,5.98a26.281,26.281,0,0,0-15.878-.166l-3.339-6.053a3.735,3.735,0,1,0-2.721,1.094l1.779,6.679A26.271,26.271,0,0,0,363.259,252.3l-6.642-1.919a3.736,3.736,0,1,0-1.15,2.7l5.98,3.465a26.3,26.3,0,0,0-.17,15.876l-6.051,3.34a3.738,3.738,0,1,0,1.091,2.721L363,276.7a26.324,26.324,0,0,0,11.11,11.349l-1.919,6.636a3.74,3.74,0,1,0,2.7,1.155l3.465-5.982a26.327,26.327,0,0,0,15.876.168l3.339,6.053a3.735,3.735,0,1,0,2.722-1.1l-1.78-6.678a26.284,26.284,0,0,0,11.346-11.11l6.64,1.921a3.736,3.736,0,1,0,5.2-3.436Z" transform="translate(-348.847 -227.039)" fill="#6aced7" fill-rule="evenodd"/><path d="M394.972,265.323a14.868,14.868,0,1,0-19.512,7.84A14.866,14.866,0,0,0,394.972,265.323Z" transform="translate(-343.588 -221.78)" fill="#2f97b2" fill-rule="evenodd"/><path d="M376.284,272a2.905,2.905,0,1,0-3.509.991A2.608,2.608,0,0,0,376.284,272Z" transform="translate(-342.246 -214.633)" fill="#2f97b2" fill-rule="evenodd"/><path d="M366.837,251.632a2.906,2.906,0,1,0-3.509.99A2.606,2.606,0,0,0,366.837,251.632Z" transform="translate(-345.073 -220.726)" fill="#2f97b2" fill-rule="evenodd"/><path d="M395.852,251.439a2.906,2.906,0,1,0-3.51.99A2.608,2.608,0,0,0,395.852,251.439Z" transform="translate(-336.391 -220.784)" fill="#2f97b2" fill-rule="evenodd"/><path d="M386.676,260.571c1.342-3.152-.735-7.059-4.645-8.726s-8.171-.466-9.516,2.685.737,7.053,4.646,8.722S385.331,263.719,386.676,260.571Z" transform="translate(-341.887 -219.841)" fill="#6aced7" fill-rule="evenodd"/></g><path d="M235.615,285.761V252.547l-7.732,5.356-2.189-5.225,9.217-7.7H243.2v40.781Z" transform="translate(-90.823 -115.135)" fill="#c7383e" fill-rule="evenodd"/><path d="M268.759,259.362a24.76,24.76,0,0,1-1.2,7.49,32.634,32.634,0,0,1-3.4,7.4,38.265,38.265,0,0,1-5.3,6.774,37.746,37.746,0,0,1-6.929,5.566c-.286-.34-.483-.605-.605-.771s-.308-.417-.56-.747v.032q-.612-.742-1.155-1.451c-.352-.473-.748-.958-1.177-1.453A32.784,32.784,0,0,0,255,276.729a22.7,22.7,0,0,0,4.057-6.248,11.677,11.677,0,0,1-4.486.869,13.189,13.189,0,0,1-4.653-.858,12.556,12.556,0,0,1-4.125-2.519,12.376,12.376,0,0,1-2.958-4.113,13.289,13.289,0,0,1-1.133-5.642,14.456,14.456,0,0,1,1-5.488,13.014,13.014,0,0,1,2.782-4.3,12.556,12.556,0,0,1,4.246-2.8,14.32,14.32,0,0,1,5.455-1,14.8,14.8,0,0,1,5.818,1.078,11.9,11.9,0,0,1,4.244,3.047,13.256,13.256,0,0,1,2.618,4.685,18.88,18.88,0,0,1,.891,5.928Zm-14.4-8.2a5.691,5.691,0,0,0-2.662.616,6.633,6.633,0,0,0-1.958,1.529,6.741,6.741,0,0,0-1.22,2.012,5.919,5.919,0,0,0-.418,2.089,6.034,6.034,0,0,0,.759,3,7.889,7.889,0,0,0,1.99,2.31,9.463,9.463,0,0,0,2.728,1.507,9.215,9.215,0,0,0,3.035.528,8.78,8.78,0,0,0,2.441-.352,7.591,7.591,0,0,0,2.244-1.1,13.463,13.463,0,0,0,.4-3.288,11.669,11.669,0,0,0-.483-3.343,9.031,9.031,0,0,0-1.419-2.837,6.794,6.794,0,0,0-2.3-1.946A6.609,6.609,0,0,0,254.363,251.158Z" transform="translate(-86.033 -115.242)" fill="#c7383e" fill-rule="evenodd"/><path d="M213.162,261.62h-1.432c-.048-.186-.091-.346-.131-.473a1.627,1.627,0,0,0-.135-.342,1.6,1.6,0,0,0-.183-.277,3.234,3.234,0,0,0-.26-.285,2.883,2.883,0,0,0-2.055-.7,3.359,3.359,0,0,0-1.369.269,2.789,2.789,0,0,0-1.023.782,3.608,3.608,0,0,0-.643,1.263,6,6,0,0,0-.221,1.7,5.855,5.855,0,0,0,.209,1.629,3.527,3.527,0,0,0,.617,1.238,2.713,2.713,0,0,0,.989.787,3.07,3.07,0,0,0,1.324.277,2.747,2.747,0,0,0,1.935-.689,3.253,3.253,0,0,0,.947-1.975h1.432a5.1,5.1,0,0,1-.867,2.267,4,4,0,0,1-3.409,1.672,5.016,5.016,0,0,1-1.944-.359,4.044,4.044,0,0,1-1.462-1.024,4.513,4.513,0,0,1-.92-1.616,6.7,6.7,0,0,1-.32-2.137,5.351,5.351,0,0,1,1.593-4.237,5.136,5.136,0,0,1,.7-.518,4.428,4.428,0,0,1,.712-.353,4.72,4.72,0,0,1,1.675-.266,5.533,5.533,0,0,1,1.649.234,3.98,3.98,0,0,1,1.3.676,3.394,3.394,0,0,1,.883,1.06A3.632,3.632,0,0,1,213.162,261.62Z" transform="translate(-97.242 -111.165)" fill="#c7383e" fill-rule="evenodd"/><path d="M211.952,264.23a5.415,5.415,0,0,1,.229-1.64,3.4,3.4,0,0,1,.664-1.22,2.807,2.807,0,0,1,1.055-.76,3.91,3.91,0,0,1,2.81,0,2.846,2.846,0,0,1,1.06.76,3.431,3.431,0,0,1,.668,1.22,6,6,0,0,1,0,3.273,3.469,3.469,0,0,1-.66,1.225,2.846,2.846,0,0,1-1.055.776,3.562,3.562,0,0,1-1.416.269,3.521,3.521,0,0,1-1.407-.269,2.926,2.926,0,0,1-1.055-.77,3.445,3.445,0,0,1-.666-1.228,5.449,5.449,0,0,1-.229-1.636Zm1.355-.005a4.657,4.657,0,0,0,.133,1.151,2.571,2.571,0,0,0,.391.869,1.771,1.771,0,0,0,.628.548,1.839,1.839,0,0,0,.856.191,1.7,1.7,0,0,0,1.48-.725,3.546,3.546,0,0,0,.516-2.074,4.5,4.5,0,0,0-.132-1.133,2.413,2.413,0,0,0-.391-.846,1.748,1.748,0,0,0-.628-.526,1.882,1.882,0,0,0-.844-.183,1.732,1.732,0,0,0-1.489.709A3.38,3.38,0,0,0,213.307,264.225Z" transform="translate(-94.935 -110.537)" fill="#c7383e" fill-rule="evenodd"/><path d="M220.253,267.92l-2.748-7.448h1.34l2.079,5.967,2.034-5.967H224.3l-2.719,7.448Z" transform="translate(-93.274 -110.5)" fill="#c7383e" fill-rule="evenodd"/><path d="M223.329,261.12H224.6v7.4h-1.276v-7.4Zm0-2.7H224.6v1.436h-1.276Z" transform="translate(-91.531 -111.113)" fill="#c7383e" fill-rule="evenodd"/><path d="M230.429,261.872V258.4h1.277v10.116h-1.212v-.943a6.533,6.533,0,0,1-.521.559,2.541,2.541,0,0,1-.492.351,2.006,2.006,0,0,1-.526.181,3.105,3.105,0,0,1-.62.056,2.625,2.625,0,0,1-2.148-1.032,3.566,3.566,0,0,1-.59-1.194,5.442,5.442,0,0,1-.208-1.562,5.719,5.719,0,0,1,.218-1.625,3.989,3.989,0,0,1,.617-1.265,2.868,2.868,0,0,1,.954-.826,2.6,2.6,0,0,1,1.234-.295,3.006,3.006,0,0,1,.56.048,1.844,1.844,0,0,1,.492.157,2.847,2.847,0,0,1,.465.295,4.88,4.88,0,0,1,.5.455Zm-1.79,5.7a1.579,1.579,0,0,0,1.393-.7,3.669,3.669,0,0,0,.478-2.055,3.6,3.6,0,0,0-.478-2.023,1.579,1.579,0,0,0-1.393-.7,1.611,1.611,0,0,0-1.407.7,3.548,3.548,0,0,0-.486,2.031,3.622,3.622,0,0,0,.486,2.055A1.605,1.605,0,0,0,228.638,267.568Z" transform="translate(-90.915 -111.12)" fill="#c7383e" fill-rule="evenodd"/><path d="M204.795,268.472h7.283v1.26H206.2V272.7h5.436v1.276H206.2v4.593h-1.4Z" transform="translate(-97.077 -108.106)" fill="#c7383e" fill-rule="evenodd"/><path d="M211.627,272.887a2.654,2.654,0,0,1,.207-1.082,2.083,2.083,0,0,1,.59-.781,2.578,2.578,0,0,1,.933-.472,4.544,4.544,0,0,1,1.232-.153,5.58,5.58,0,0,1,1.23.119,2.2,2.2,0,0,1,.885.4,1.7,1.7,0,0,1,.535.72,2.92,2.92,0,0,1,.178,1.09v3.527q0,.762.452.763l.366-.031v.984c-.1.031-.178.056-.251.074s-.138.035-.2.048a.98.98,0,0,1-.168.021c-.051,0-.109.005-.17.005a1.108,1.108,0,0,1-1.18-1.121,3.331,3.331,0,0,1-2.541,1.185,3.021,3.021,0,0,1-.984-.151,2.135,2.135,0,0,1-.76-.442,1.94,1.94,0,0,1-.487-.694,2.346,2.346,0,0,1-.173-.92A2.01,2.01,0,0,1,212.555,274a10.451,10.451,0,0,1,2.892-.625l.741-.1v-.359a1.794,1.794,0,0,0-.105-.669.993.993,0,0,0-.309-.426,1.222,1.222,0,0,0-.5-.225,3.127,3.127,0,0,0-.689-.068,1.923,1.923,0,0,0-1.212.335,1.218,1.218,0,0,0-.426,1.021Zm4.545,1.39-.473.069c-.144.021-.287.043-.433.066s-.3.051-.465.082-.355.07-.566.118a5.937,5.937,0,0,0-.718.212,1.792,1.792,0,0,0-.486.264.843.843,0,0,0-.269.346,1.209,1.209,0,0,0-.082.47,1.04,1.04,0,0,0,.348.834,1.465,1.465,0,0,0,.981.295,2.493,2.493,0,0,0,.839-.14,2.373,2.373,0,0,0,.686-.372,1.8,1.8,0,0,0,.465-.546,1.366,1.366,0,0,0,.173-.661Z" transform="translate(-95.123 -107.529)" fill="#c7383e" fill-rule="evenodd"/><path d="M222.443,275.359h1.3a4.072,4.072,0,0,1-.359,1.276,2.8,2.8,0,0,1-.665.882,2.649,2.649,0,0,1-.917.513,3.512,3.512,0,0,1-1.1.166,3.857,3.857,0,0,1-1.456-.257,2.878,2.878,0,0,1-1.077-.739,3.143,3.143,0,0,1-.667-1.187,5.212,5.212,0,0,1-.226-1.6,5.823,5.823,0,0,1,.229-1.7,3.5,3.5,0,0,1,.667-1.26,2.856,2.856,0,0,1,1.069-.779,3.653,3.653,0,0,1,1.441-.268,3.51,3.51,0,0,1,1.174.186,2.66,2.66,0,0,1,1.56,1.411,3.721,3.721,0,0,1,.325,1.163h-1.3q-.351-1.612-1.759-1.611a1.789,1.789,0,0,0-1.515.7,3.171,3.171,0,0,0-.535,1.97,3.559,3.559,0,0,0,.526,2.1,1.778,1.778,0,0,0,1.537.731Q222.013,277.05,222.443,275.359Z" transform="translate(-93.341 -107.529)" fill="#c7383e" fill-rule="evenodd"/><path d="M222.494,270.965h.973v-1.819h1.276v1.819h1.23v1.069h-1.23v4.494a2.311,2.311,0,0,0,.034.439.581.581,0,0,0,.131.282.48.48,0,0,0,.247.148,1.483,1.483,0,0,0,.4.043l.42-.016v1.08l-.951.052c-.772,0-1.247-.279-1.43-.834a4.257,4.257,0,0,1-.125-1.291v-4.4h-.973Z" transform="translate(-91.781 -107.904)" fill="#c7383e" fill-rule="evenodd"/><path d="M225.98,275.566h1.347c0,.144.005.269.014.369a1.672,1.672,0,0,0,.036.264.727.727,0,0,0,.086.2,1.22,1.22,0,0,0,.153.183,1.814,1.814,0,0,0,1.346.448,2.054,2.054,0,0,0,1.161-.292.9.9,0,0,0,.435-.781.663.663,0,0,0-.151-.424,1.612,1.612,0,0,0-.574-.372l-2.328-.725a1.96,1.96,0,0,1-1.285-1.89,1.879,1.879,0,0,1,.2-.874,2.031,2.031,0,0,1,.565-.681,2.68,2.68,0,0,1,.869-.438,3.8,3.8,0,0,1,1.122-.157,3.924,3.924,0,0,1,1.106.148,2.5,2.5,0,0,1,.861.439,1.961,1.961,0,0,1,.561.734,2.455,2.455,0,0,1,.2,1.023H230.4a1.232,1.232,0,0,0-.121-.574.993.993,0,0,0-.326-.372,1.363,1.363,0,0,0-.473-.2,2.453,2.453,0,0,0-.556-.064,2.034,2.034,0,0,0-.537.068,1.553,1.553,0,0,0-.444.186,1.077,1.077,0,0,0-.3.29.64.64,0,0,0-.112.361.865.865,0,0,0,.638.851l2.161.669a6.14,6.14,0,0,1,.694.348,2.213,2.213,0,0,1,.492.388,1.446,1.446,0,0,1,.3.481,1.75,1.75,0,0,1,.1.617,2.2,2.2,0,0,1-.8,1.707,2.842,2.842,0,0,1-.935.5,3.908,3.908,0,0,1-1.237.183,3.263,3.263,0,0,1-2.209-.661A2.456,2.456,0,0,1,225.98,275.566Z" transform="translate(-90.737 -107.529)" fill="#c7383e" fill-rule="evenodd"/></g></svg>