<svg xmlns="http://www.w3.org/2000/svg" xmlns:xlink="http://www.w3.org/1999/xlink" width="428" height="291" viewBox="0 0 428 291"><defs><clipPath id="a"><rect width="428" height="291" transform="translate(0 40)" fill="#fff" stroke="#707070" stroke-width="1"/></clipPath></defs><g transform="translate(0 -40)" clip-path="url(#a)"><g transform="translate(323.438 97.334)"><path d="M360.638,281.032l-1.188-1.227,18.918-23.447,24.018-18.194,1.188,1.227-18.918,23.451Z" transform="translate(-346.752 -224.84)" fill="#f9f9f9" fill-rule="evenodd"/><path d="M398.426,241.372a3.052,3.052,0,1,1,.067-4.314A3.051,3.051,0,0,1,398.426,241.372Z" transform="translate(-340.073 -225.242)" fill="#f9f9f9" fill-rule="evenodd"/><path d="M362.572,276.143a3.051,3.051,0,1,1,.067-4.319A3.051,3.051,0,0,1,362.572,276.143Z" transform="translate(-347.158 -218.372)" fill="#f9f9f9" fill-rule="evenodd"/><path d="M352.892,257.2l.025-1.708,29.96-3.2,29.847,4.119-.025,1.71-29.959,3.2Z" transform="translate(-348.048 -222.049)" fill="#f9f9f9" fill-rule="evenodd"/><path d="M403.3,260a3.051,3.051,0,1,1,3.1-3A3.052,3.052,0,0,1,403.3,260Z" transform="translate(-338.682 -221.732)" fill="#f9f9f9" fill-rule="evenodd"/><path d="M353.361,259.234a3.051,3.051,0,1,1,3.1-3A3.05,3.05,0,0,1,353.361,259.234Z" transform="translate(-348.549 -221.883)" fill="#f9f9f9" fill-rule="evenodd"/><path d="M359.974,238.828l1.227-1.188,23.451,18.918,18.191,24.017-1.227,1.192-23.45-18.922Z" transform="translate(-346.648 -224.944)" fill="#f9f9f9" fill-rule="evenodd"/><path d="M393.568,276.616a3.051,3.051,0,1,1,4.317.068A3.05,3.05,0,0,1,393.568,276.616Z" transform="translate(-340.18 -218.265)" fill="#f9f9f9" fill-rule="evenodd"/><path d="M358.8,240.765a3.053,3.053,0,1,1,4.315.063A3.052,3.052,0,0,1,358.8,240.765Z" transform="translate(-347.051 -225.35)" fill="#f9f9f9" fill-rule="evenodd"/><path d="M378.221,231.082l1.708.029,3.2,29.956-4.119,29.847-1.708-.026-3.2-29.959Z" transform="translate(-343.857 -226.24)" fill="#f9f9f9" fill-rule="evenodd"/><path d="M374.942,281.487a3.051,3.051,0,1,1,3,3.1A3.051,3.051,0,0,1,374.942,281.487Z" transform="translate(-343.691 -216.874)" fill="#f9f9f9" fill-rule="evenodd"/><path d="M375.707,231.551a3.051,3.051,0,1,1,3,3.1A3.051,3.051,0,0,1,375.707,231.551Z" transform="translate(-343.54 -226.741)" fill="#f9f9f9" fill-rule="evenodd"/><path d="M416,271.876a3.44,3.44,0,0,0-3.735.679l-5.511-3.194a24.251,24.251,0,0,0,.157-14.635l5.576-3.079a3.446,3.446,0,1,0-1.006-2.508l-6.157,1.641a24.234,24.234,0,0,0-10.241-10.459l1.769-6.122a3.444,3.444,0,1,0-2.485-1.06l-3.194,5.513a24.226,24.226,0,0,0-14.636-.153l-3.078-5.58a3.443,3.443,0,1,0-2.508,1.008l1.639,6.157a24.217,24.217,0,0,0-10.457,10.237l-6.122-1.769a3.444,3.444,0,1,0-1.06,2.486l5.513,3.194a24.241,24.241,0,0,0-.157,14.635l-5.577,3.079a3.446,3.446,0,1,0,1.006,2.508l6.157-1.64a24.265,24.265,0,0,0,10.241,10.461l-1.769,6.117a3.447,3.447,0,1,0,2.486,1.065l3.194-5.514a24.268,24.268,0,0,0,14.635.155l3.078,5.58a3.443,3.443,0,1,0,2.509-1.01l-1.641-6.156a24.228,24.228,0,0,0,10.459-10.241l6.121,1.771a3.444,3.444,0,1,0,4.8-3.168Z" transform="translate(-348.847 -227.039)" fill="#f9f9f9" fill-rule="evenodd"/><path d="M392.739,263.7a13.705,13.705,0,1,0-17.986,7.226A13.7,13.7,0,0,0,392.739,263.7Z" transform="translate(-345.374 -223.566)" fill="#f9f9f9" fill-rule="evenodd"/><path d="M375.863,271.723a2.678,2.678,0,1,0-3.235.914A2.4,2.4,0,0,0,375.863,271.723Z" transform="translate(-344.488 -218.846)" fill="#f9f9f9" fill-rule="evenodd"/><path d="M366.416,251.359a2.678,2.678,0,1,0-3.235.913A2.4,2.4,0,0,0,366.416,251.359Z" transform="translate(-346.354 -222.87)" fill="#f9f9f9" fill-rule="evenodd"/><path d="M395.431,251.166a2.679,2.679,0,1,0-3.236.913A2.4,2.4,0,0,0,395.431,251.166Z" transform="translate(-340.621 -222.908)" fill="#f9f9f9" fill-rule="evenodd"/><path d="M385.537,259.829c1.237-2.905-.678-6.507-4.281-8.043s-7.532-.43-8.771,2.475.679,6.5,4.283,8.039S384.3,262.731,385.537,259.829Z" transform="translate(-344.251 -222.286)" fill="#f9f9f9" fill-rule="evenodd"/></g><g transform="translate(278.438 166.851)"><path d="M360.638,281.032l-1.188-1.227,18.918-23.447,24.018-18.194,1.188,1.227-18.918,23.451Z" transform="translate(-346.752 -224.84)" fill="#f9f9f9" fill-rule="evenodd"/><path d="M398.426,241.372a3.052,3.052,0,1,1,.067-4.314A3.051,3.051,0,0,1,398.426,241.372Z" transform="translate(-340.073 -225.242)" fill="#f9f9f9" fill-rule="evenodd"/><path d="M362.572,276.143a3.051,3.051,0,1,1,.067-4.319A3.051,3.051,0,0,1,362.572,276.143Z" transform="translate(-347.158 -218.372)" fill="#f9f9f9" fill-rule="evenodd"/><path d="M352.892,257.2l.025-1.708,29.96-3.2,29.847,4.119-.025,1.71-29.959,3.2Z" transform="translate(-348.048 -222.049)" fill="#f9f9f9" fill-rule="evenodd"/><path d="M403.3,260a3.051,3.051,0,1,1,3.1-3A3.052,3.052,0,0,1,403.3,260Z" transform="translate(-338.682 -221.732)" fill="#f9f9f9" fill-rule="evenodd"/><path d="M353.361,259.234a3.051,3.051,0,1,1,3.1-3A3.05,3.05,0,0,1,353.361,259.234Z" transform="translate(-348.549 -221.883)" fill="#f9f9f9" fill-rule="evenodd"/><path d="M359.974,238.828l1.227-1.188,23.451,18.918,18.191,24.017-1.227,1.192-23.45-18.922Z" transform="translate(-346.648 -224.944)" fill="#f9f9f9" fill-rule="evenodd"/><path d="M393.568,276.616a3.051,3.051,0,1,1,4.317.068A3.05,3.05,0,0,1,393.568,276.616Z" transform="translate(-340.18 -218.265)" fill="#f9f9f9" fill-rule="evenodd"/><path d="M358.8,240.765a3.053,3.053,0,1,1,4.315.063A3.052,3.052,0,0,1,358.8,240.765Z" transform="translate(-347.051 -225.35)" fill="#f9f9f9" fill-rule="evenodd"/><path d="M378.221,231.082l1.708.029,3.2,29.956-4.119,29.847-1.708-.026-3.2-29.959Z" transform="translate(-343.857 -226.24)" fill="#f9f9f9" fill-rule="evenodd"/><path d="M374.942,281.487a3.051,3.051,0,1,1,3,3.1A3.051,3.051,0,0,1,374.942,281.487Z" transform="translate(-343.691 -216.874)" fill="#f9f9f9" fill-rule="evenodd"/><path d="M375.707,231.551a3.051,3.051,0,1,1,3,3.1A3.051,3.051,0,0,1,375.707,231.551Z" transform="translate(-343.54 -226.741)" fill="#f9f9f9" fill-rule="evenodd"/><path d="M416,271.876a3.44,3.44,0,0,0-3.735.679l-5.511-3.194a24.251,24.251,0,0,0,.157-14.635l5.576-3.079a3.446,3.446,0,1,0-1.006-2.508l-6.157,1.641a24.234,24.234,0,0,0-10.241-10.459l1.769-6.122a3.444,3.444,0,1,0-2.485-1.06l-3.194,5.513a24.226,24.226,0,0,0-14.636-.153l-3.078-5.58a3.443,3.443,0,1,0-2.508,1.008l1.639,6.157a24.217,24.217,0,0,0-10.457,10.237l-6.122-1.769a3.444,3.444,0,1,0-1.06,2.486l5.513,3.194a24.241,24.241,0,0,0-.157,14.635l-5.577,3.079a3.446,3.446,0,1,0,1.006,2.508l6.157-1.64a24.265,24.265,0,0,0,10.241,10.461l-1.769,6.117a3.447,3.447,0,1,0,2.486,1.065l3.194-5.514a24.268,24.268,0,0,0,14.635.155l3.078,5.58a3.443,3.443,0,1,0,2.509-1.01l-1.641-6.156a24.228,24.228,0,0,0,10.459-10.241l6.121,1.771a3.444,3.444,0,1,0,4.8-3.168Z" transform="translate(-348.847 -227.039)" fill="#f9f9f9" fill-rule="evenodd"/><path d="M392.739,263.7a13.705,13.705,0,1,0-17.986,7.226A13.7,13.7,0,0,0,392.739,263.7Z" transform="translate(-345.374 -223.566)" fill="#f9f9f9" fill-rule="evenodd"/><path d="M375.863,271.723a2.678,2.678,0,1,0-3.235.914A2.4,2.4,0,0,0,375.863,271.723Z" transform="translate(-344.488 -218.846)" fill="#f9f9f9" fill-rule="evenodd"/><path d="M366.416,251.359a2.678,2.678,0,1,0-3.235.913A2.4,2.4,0,0,0,366.416,251.359Z" transform="translate(-346.354 -222.87)" fill="#f9f9f9" fill-rule="evenodd"/><path d="M395.431,251.166a2.679,2.679,0,1,0-3.236.913A2.4,2.4,0,0,0,395.431,251.166Z" transform="translate(-340.621 -222.908)" fill="#f9f9f9" fill-rule="evenodd"/><path d="M385.537,259.829c1.237-2.905-.678-6.507-4.281-8.043s-7.532-.43-8.771,2.475.679,6.5,4.283,8.039S384.3,262.731,385.537,259.829Z" transform="translate(-344.251 -222.286)" fill="#f9f9f9" fill-rule="evenodd"/></g><g transform="translate(74.349 132.092)"><path d="M360.638,281.032l-1.188-1.227,18.918-23.447,24.018-18.194,1.188,1.227-18.918,23.451Z" transform="translate(-346.752 -224.84)" fill="#f9f9f9" fill-rule="evenodd"/><path d="M398.426,241.372a3.052,3.052,0,1,1,.067-4.314A3.051,3.051,0,0,1,398.426,241.372Z" transform="translate(-340.073 -225.242)" fill="#f9f9f9" fill-rule="evenodd"/><path d="M362.572,276.143a3.051,3.051,0,1,1,.067-4.319A3.051,3.051,0,0,1,362.572,276.143Z" transform="translate(-347.158 -218.372)" fill="#f9f9f9" fill-rule="evenodd"/><path d="M352.892,257.2l.025-1.708,29.96-3.2,29.847,4.119-.025,1.71-29.959,3.2Z" transform="translate(-348.048 -222.049)" fill="#f9f9f9" fill-rule="evenodd"/><path d="M403.3,260a3.051,3.051,0,1,1,3.1-3A3.052,3.052,0,0,1,403.3,260Z" transform="translate(-338.682 -221.732)" fill="#f9f9f9" fill-rule="evenodd"/><path d="M353.361,259.234a3.051,3.051,0,1,1,3.1-3A3.05,3.05,0,0,1,353.361,259.234Z" transform="translate(-348.549 -221.883)" fill="#f9f9f9" fill-rule="evenodd"/><path d="M359.974,238.828l1.227-1.188,23.451,18.918,18.191,24.017-1.227,1.192-23.45-18.922Z" transform="translate(-346.648 -224.944)" fill="#f9f9f9" fill-rule="evenodd"/><path d="M393.568,276.616a3.051,3.051,0,1,1,4.317.068A3.05,3.05,0,0,1,393.568,276.616Z" transform="translate(-340.18 -218.265)" fill="#f9f9f9" fill-rule="evenodd"/><path d="M358.8,240.765a3.053,3.053,0,1,1,4.315.063A3.052,3.052,0,0,1,358.8,240.765Z" transform="translate(-347.051 -225.35)" fill="#f9f9f9" fill-rule="evenodd"/><path d="M378.221,231.082l1.708.029,3.2,29.956-4.119,29.847-1.708-.026-3.2-29.959Z" transform="translate(-343.857 -226.24)" fill="#f9f9f9" fill-rule="evenodd"/><path d="M374.942,281.487a3.051,3.051,0,1,1,3,3.1A3.051,3.051,0,0,1,374.942,281.487Z" transform="translate(-343.691 -216.874)" fill="#f9f9f9" fill-rule="evenodd"/><path d="M375.707,231.551a3.051,3.051,0,1,1,3,3.1A3.051,3.051,0,0,1,375.707,231.551Z" transform="translate(-343.54 -226.741)" fill="#f9f9f9" fill-rule="evenodd"/><path d="M416,271.876a3.44,3.44,0,0,0-3.735.679l-5.511-3.194a24.251,24.251,0,0,0,.157-14.635l5.576-3.079a3.446,3.446,0,1,0-1.006-2.508l-6.157,1.641a24.234,24.234,0,0,0-10.241-10.459l1.769-6.122a3.444,3.444,0,1,0-2.485-1.06l-3.194,5.513a24.226,24.226,0,0,0-14.636-.153l-3.078-5.58a3.443,3.443,0,1,0-2.508,1.008l1.639,6.157a24.217,24.217,0,0,0-10.457,10.237l-6.122-1.769a3.444,3.444,0,1,0-1.06,2.486l5.513,3.194a24.241,24.241,0,0,0-.157,14.635l-5.577,3.079a3.446,3.446,0,1,0,1.006,2.508l6.157-1.64a24.265,24.265,0,0,0,10.241,10.461l-1.769,6.117a3.447,3.447,0,1,0,2.486,1.065l3.194-5.514a24.268,24.268,0,0,0,14.635.155l3.078,5.58a3.443,3.443,0,1,0,2.509-1.01l-1.641-6.156a24.228,24.228,0,0,0,10.459-10.241l6.121,1.771a3.444,3.444,0,1,0,4.8-3.168Z" transform="translate(-348.847 -227.039)" fill="#f9f9f9" fill-rule="evenodd"/><path d="M392.739,263.7a13.705,13.705,0,1,0-17.986,7.226A13.7,13.7,0,0,0,392.739,263.7Z" transform="translate(-345.374 -223.566)" fill="#f9f9f9" fill-rule="evenodd"/><path d="M375.863,271.723a2.678,2.678,0,1,0-3.235.914A2.4,2.4,0,0,0,375.863,271.723Z" transform="translate(-344.488 -218.846)" fill="#f9f9f9" fill-rule="evenodd"/><path d="M366.416,251.359a2.678,2.678,0,1,0-3.235.913A2.4,2.4,0,0,0,366.416,251.359Z" transform="translate(-346.354 -222.87)" fill="#f9f9f9" fill-rule="evenodd"/><path d="M395.431,251.166a2.679,2.679,0,1,0-3.236.913A2.4,2.4,0,0,0,395.431,251.166Z" transform="translate(-340.621 -222.908)" fill="#f9f9f9" fill-rule="evenodd"/><path d="M385.537,259.829c1.237-2.905-.678-6.507-4.281-8.043s-7.532-.43-8.771,2.475.679,6.5,4.283,8.039S384.3,262.731,385.537,259.829Z" transform="translate(-344.251 -222.286)" fill="#f9f9f9" fill-rule="evenodd"/></g><g transform="translate(143.868 126.474)"><path d="M1636.384,338.988a3.151,3.151,0,0,0-1.235.2c-1.653.9-2.526.035-3.471-1.225-2.117-2.823-2.167-2.785.3-5.275,1.407-1.418,2.849-2.8,4.208-4.267a2.142,2.142,0,0,1,2.544-.7,7.278,7.278,0,0,0,8.255-2.493,7.479,7.479,0,0,0,1.084-8.506,7.567,7.567,0,0,0-7.391-4.545,7.9,7.9,0,0,0-7.242,10.2,2.167,2.167,0,0,1-.605,2.56c-3.72,3.669-7.375,7.4-11.057,11.108a3.011,3.011,0,0,0-1.192,2.392,2.319,2.319,0,0,0,1.453,2.018,2.17,2.17,0,0,0,2.673-.511c1.022-1.226,1.73-.833,2.485.2a9.5,9.5,0,0,0,.968,1.192,3.077,3.077,0,0,1,.826,3.968,2.717,2.717,0,0,0-.2,1.805c.521,1.812-.54,2.569-1.846,3.339-1.672.985-3.286,2.073-4.906,3.146-1.52,1.008-1.94,2.411-1.14,3.651s2.246,1.449,3.764.486c1.772-1.122,3.557-2.226,5.263-3.442a2.7,2.7,0,0,1,3.3-.224,7.626,7.626,0,0,0,10.372-3.292,7.876,7.876,0,0,0-3-10.686A8.241,8.241,0,0,0,1636.384,338.988Zm.3,5.016a2.918,2.918,0,0,1,3.064,3.09,3.105,3.105,0,0,1-3.089,2.987,2.951,2.951,0,0,1-2.935-3.09A2.784,2.784,0,0,1,1636.684,344Zm4.216-26.851a2.922,2.922,0,0,1,3.135,3.019,3.108,3.108,0,0,1-3.022,3.055,2.96,2.96,0,0,1-3-3.017A2.787,2.787,0,0,1,1640.9,317.153Z" transform="translate(-1521.883 -294.525)" fill="rgba(214,240,242,0.4)"/><path d="M1428.261,312.094a7.824,7.824,0,0,0-6.59,4.664,7.454,7.454,0,0,0,1.249,8.6,7.208,7.208,0,0,0,8.032,2.329,2.182,2.182,0,0,1,2.561.649c3.353,3.451,6.763,6.847,10.153,10.262.324.327.643.661.984.971,1.353,1.226,2.627,1.38,3.68.457,1.114-.977,1.151-2.28-.08-3.8-.682-.842-.45-1.271.281-1.86a43.839,43.839,0,0,1,16.444-8.249c.59-.157,1.2-.272,1.769-.482a2.39,2.39,0,0,0,1.63-3.043,2.326,2.326,0,0,0-2.893-1.619,46.6,46.6,0,0,0-13.387,5.119,44.415,44.415,0,0,0-7.191,4.945c-.682.585-1.116.664-1.772-.018-2.093-2.177-4.212-4.333-6.385-6.428-.79-.762-.629-1.483-.376-2.367C1437.817,317.2,1434.048,312.14,1428.261,312.094Zm.4,5.017a2.927,2.927,0,0,1,3.213,2.939,3.123,3.123,0,0,1-2.951,3.132,2.933,2.933,0,0,1-3.072-2.938A2.792,2.792,0,0,1,1428.66,317.111Z" transform="translate(-1404.028 -294.48)" fill="rgba(214,240,242,0.4)"/><path d="M1420.93,525.618a7.813,7.813,0,0,0,4.618,6.778,7.889,7.889,0,0,0,10.855-9.382,2.327,2.327,0,0,1,.721-2.694c3.533-3.486,7.009-7.031,10.5-10.559a9.874,9.874,0,0,0,1.038-1.128,2.338,2.338,0,0,0-.129-3.229,2.085,2.085,0,0,0-3.146-.2c-.895.816-1.386.589-2.092-.2a45.329,45.329,0,0,1-7.184-10.861,11.644,11.644,0,0,0-.531-1.108,2.367,2.367,0,0,0-3.139-1.1,2.4,2.4,0,0,0-1.225,3.11,29.741,29.741,0,0,0,2.862,5.61,42,42,0,0,0,5.881,7.857c.812.826.76,1.343-.051,2.123q-3.208,3.086-6.272,6.321a2.1,2.1,0,0,1-2.525.657C1426.134,516.01,1420.943,519.9,1420.93,525.618Zm7.9-3.408a2.94,2.94,0,0,1,3.1,3.061,3.107,3.107,0,0,1-3.063,3.014,2.935,2.935,0,0,1-2.962-3.053A2.785,2.785,0,0,1,1428.828,522.21Z" transform="translate(-1404.083 -400.499)" fill="rgba(214,240,242,0.4)"/><path d="M1660.953,495.567a7.826,7.826,0,0,0-11.425-6.988,2.134,2.134,0,0,1-2.72-.207,36.381,36.381,0,0,0-3.532-2.434c-.844-.52-.88-1-.44-1.87a48.266,48.266,0,0,0,4.1-11.254,8.759,8.759,0,0,0,.216-1.21c.131-1.611-.547-2.66-1.854-2.912a2.38,2.38,0,0,0-2.874,2.077,48.817,48.817,0,0,1-3.169,9.472c-.109.233-.216.466-.312.7-.432,1.07-1,1.445-2.048.6a36.064,36.064,0,0,0-3.143-2.188c-1.419-.913-2.83-.694-3.642.509s-.492,2.569.936,3.561q6.547,4.549,13.135,9.034a2.055,2.055,0,0,1,1.07,2.236,7.893,7.893,0,1,0,15.707.869Zm-7.819-2.968a3.032,3.032,0,1,1-.022,6.063,3.034,3.034,0,0,1-3.087-3.117A3.065,3.065,0,0,1,1653.134,492.6Z" transform="translate(-1527.295 -386.884)" fill="rgba(214,240,242,0.4)"/><path d="M1541.535,559.021c0,2.622-.029,5.244.015,7.866a2.018,2.018,0,0,1-1.173,2.08,7.721,7.721,0,0,0-3.943,9.362,7.862,7.862,0,0,0,15.386-1.765,7.462,7.462,0,0,0-3.95-7.442,2.348,2.348,0,0,1-1.4-2.419c.075-2.414.071-4.833,0-7.247-.035-1.269.318-1.784,1.692-1.885a46.3,46.3,0,0,0,11.21-2.292,2.818,2.818,0,0,0,2.1-2.027c.452-1.867-1.334-3.318-3.439-2.689a49.328,49.328,0,0,1-7.884,1.838c-.3.039-.6.106-.908.136-2.421.236-2.421.234-2.846-2.179a2.524,2.524,0,0,0-2.52-2.4,2.488,2.488,0,0,0-2.329,2.733c-.042,2.775-.011,5.552-.011,8.328Zm2.367,14a2.9,2.9,0,0,1,3.126,3.016,3.11,3.11,0,0,1-3.033,3.044,2.933,2.933,0,0,1-2.991-3.023A2.765,2.765,0,0,1,1543.9,573.023Z" transform="translate(-1472.029 -433.703)" fill="rgba(214,240,242,0.4)"/><path d="M1407.745,446.326c0-1.429.039-2.407-.01-3.381-.092-1.867-1.021-2.865-2.55-2.819-1.438.043-2.306,1.058-2.389,2.83a48.961,48.961,0,0,0,.675,10.128c.18,1.11-.185,1.457-1.212,1.589-2.019.26-4.045.543-6.031.987a1.9,1.9,0,0,1-2.264-.957,7.789,7.789,0,0,0-8.309-2.823,7.974,7.974,0,0,0,.5,15.49,7.686,7.686,0,0,0,8.778-4.768,3.136,3.136,0,0,1,2.963-2.266c4.985-.764,9.958-1.609,14.927-2.472,1.622-.282,2.392-1.208,2.342-2.553a2.333,2.333,0,0,0-2.2-2.332,4.339,4.339,0,0,0-.759.052c-3.8.379-3.821.383-4.3-3.462C1407.757,448.348,1407.781,447.106,1407.745,446.326Zm-19.984,10.248a2.935,2.935,0,0,1,3.044,2.966,3.126,3.126,0,0,1-2.977,3.109,2.922,2.922,0,0,1-3.046-3.108A2.783,2.783,0,0,1,1387.761,456.574Z" transform="translate(-1379.813 -370.052)" fill="rgba(214,240,242,0.4)"/><path d="M1661,437.767c2.6,0,5.2.03,7.8-.015a1.993,1.993,0,0,1,2.068,1.173,7.916,7.916,0,0,0,7.948,4.317,7.978,7.978,0,0,0,1.706-15.411,7.643,7.643,0,0,0-9.393,3.348,2.758,2.758,0,0,1-2.922,1.6c-2.24-.081-4.486-.043-6.728-.017-.944.011-1.41-.328-1.4-1.341a33.722,33.722,0,0,0-.646-5.5c-.3-1.872-1.482-2.847-2.985-2.535-1.427.3-2.113,1.586-1.855,3.357.23,1.573.346,3.165.6,4.732.165,1.007-.244,1.308-1.145,1.283a9.611,9.611,0,0,0-1.526.06,2.471,2.471,0,1,0,.22,4.927c2.751.039,5.5.011,8.257.011Zm16.839.53a2.886,2.886,0,0,1-3.036-3.07,3.072,3.072,0,0,1,3.027-3,2.907,2.907,0,0,1,2.984,3.131A2.782,2.782,0,0,1,1677.838,438.3Z" transform="translate(-1539.301 -360.141)" fill="rgba(214,240,242,0.4)"/><path d="M1422,390.764a8.575,8.575,0,0,0-4.433-4.88,7.9,7.9,0,0,0-9.561,2.573,8.06,8.06,0,0,0,.8,10.318,7.694,7.694,0,0,0,9.953.942,3.2,3.2,0,0,1,3.86-.365c2.009,1,4.1,1.845,6.178,2.691,1.667.678,2.954.263,3.538-1.027.611-1.346-.005-2.716-1.622-3.473q-1.943-.91-3.937-1.705c-.9-.362-1.091-.869-.732-1.793a48.761,48.761,0,0,1,4.294-8.683c.277-.432.567-.856.823-1.3.858-1.486.652-2.9-.521-3.669-1.205-.792-2.561-.441-3.55.971a46.848,46.848,0,0,0-3.932,6.964C1422.823,389.018,1422.5,389.71,1422,390.764Zm-4.638,2.285a2.972,2.972,0,0,1-2.937,3.215,3.151,3.151,0,0,1-3.083-2.978,3.1,3.1,0,0,1,2.994-3.214A3.019,3.019,0,0,1,1417.358,393.049Z" transform="translate(-1395.568 -334.549)" fill="rgba(214,240,242,0.4)"/><path d="M1614,529.987a47.033,47.033,0,0,0,5.624-5.59c1.214-1.5,1.23-2.806.071-3.794-1.121-.957-2.569-.792-3.759.609a46.879,46.879,0,0,1-6.351,6c-.9.728-1.548.809-2.193-.278a10.04,10.04,0,0,0-1.316-1.7,2.32,2.32,0,0,0-3.293-.361,2.344,2.344,0,0,0-.485,3.3c.944,1.4,1.967,2.754,3.02,4.077a1.792,1.792,0,0,1,.27,2.211,7.437,7.437,0,0,0,1.141,8.743,7.286,7.286,0,0,0,7.588,2.5,7.875,7.875,0,0,0,6.157-6.533c.708-3.328-1.524-7.242-4.837-8.582C1615.172,530.405,1614.7,530.244,1614,529.987Zm-1.377,11.007a2.983,2.983,0,0,1-3.018-3.17,2.916,2.916,0,0,1,3.116-2.892,3.033,3.033,0,0,1-.1,6.062Z" transform="translate(-1510.862 -417.2)" fill="rgba(214,240,242,0.4)"/><path d="M1546.516,294.051c0-2.52.044-5.042-.018-7.561a2.451,2.451,0,0,1,1.453-2.558,7.776,7.776,0,0,0,3.478-9.43,7.99,7.99,0,0,0-8.55-5.308,8.089,8.089,0,0,0-6.8,7.647,7.482,7.482,0,0,0,3.994,7.131,2.539,2.539,0,0,1,1.51,2.663c-.062,5.143-.016,10.287-.03,15.43a2.875,2.875,0,0,0,1.143,2.7c1.7,1.121,3.653-.046,3.768-2.382.119-2.412.042-4.833.052-7.251C1546.517,294.771,1546.516,294.412,1546.516,294.051Zm-2.492-19.911a2.909,2.909,0,0,1,3.027,2.975,3.092,3.092,0,0,1-2.981,3.092,2.931,2.931,0,0,1-3.045-3.118A2.787,2.787,0,0,1,1544.024,274.14Z" transform="translate(-1472.053 -269.105)" fill="rgba(214,240,242,0.4)"/><path d="M1554.5,422.845a9.547,9.547,0,1,0,9.42,9.587A9.6,9.6,0,0,0,1554.5,422.845Zm-.1,5.009a4.442,4.442,0,0,1,4.646,4.437,4.66,4.66,0,0,1-4.609,4.732,4.438,4.438,0,0,1-4.485-4.6A4.277,4.277,0,0,1,1554.4,427.854Z" transform="translate(-1477.31 -359.853)" fill="rgba(214,240,242,0.4)"/><path d="M1513.241,370.112a8,8,0,0,0,.058,16,8.216,8.216,0,0,0,7.956-8.124A8.105,8.105,0,0,0,1513.241,370.112Zm.117,5.011a2.91,2.91,0,0,1,3.018,2.985,3.1,3.1,0,0,1-2.989,3.089,2.945,2.945,0,0,1-3.037-3.134A2.784,2.784,0,0,1,1513.358,375.123Z" transform="translate(-1453.932 -328.726)" fill="rgba(214,240,242,0.4)"/><path d="M1557.386,489.9a8,8,0,0,0-.049,16,8.223,8.223,0,0,0,8.012-8.073A8.118,8.118,0,0,0,1557.386,489.9Zm.058,5.011a2.91,2.91,0,0,1,3.025,2.977,3.1,3.1,0,0,1-2.983,3.1,2.946,2.946,0,0,1-3.043-3.128A2.774,2.774,0,0,1,1557.443,494.906Z" transform="translate(-1479.958 -399.431)" fill="rgba(214,240,242,0.4)"/><path d="M1488.495,428.128a6.3,6.3,0,1,0,6.228,6.321A6.442,6.442,0,0,0,1488.495,428.128Z" transform="translate(-1440.261 -362.972)" fill="rgba(214,240,242,0.4)"/><path d="M1615.547,459.769a6.3,6.3,0,1,0,6.219,6.329A6.44,6.44,0,0,0,1615.547,459.769Z" transform="translate(-1515.252 -381.648)" fill="rgba(214,240,242,0.4)"/><path d="M1576.752,376.146a6.3,6.3,0,1,0,6.154,6.4A6.441,6.441,0,0,0,1576.752,376.146Z" transform="translate(-1492.313 -332.288)" fill="rgba(214,240,242,0.4)"/><path d="M1503.684,493.112a6.248,6.248,0,1,0-6.177,6.382A6.4,6.4,0,0,0,1503.684,493.112Z" transform="translate(-1445.555 -397.656)" fill="rgba(214,240,242,0.4)"/><path d="M1571.711,332.589a2.493,2.493,0,0,0-2.51,2.128,2.259,2.259,0,0,0,1.507,2.565,6.805,6.805,0,0,0,1.323.351,43.978,43.978,0,0,1,15.353,6.25,6.336,6.336,0,0,0,.924.539,2.259,2.259,0,0,0,3.082-.833,2.217,2.217,0,0,0-.481-3.162,25.153,25.153,0,0,0-4.814-2.968,48.085,48.085,0,0,0-13.526-4.707C1572.268,332.7,1571.969,332.638,1571.711,332.589Z" transform="translate(-1491.581 -306.578)" fill="rgba(214,240,242,0.4)"/><path d="M1507.079,554.033a2.484,2.484,0,0,0,2.714-1.985,2.4,2.4,0,0,0-1.849-2.788c-2.159-.608-4.333-1.142-6.437-1.942a49.617,49.617,0,0,1-7.005-3.427,2.549,2.549,0,0,0-2.886-.041c-1.508,1.015-1.461,2.979.194,4.1a36.9,36.9,0,0,0,7.227,3.659A44.864,44.864,0,0,0,1507.079,554.033Z" transform="translate(-1445.163 -431.025)" fill="rgba(214,240,242,0.4)"/></g></g></svg>